<?xml version="1.0" encoding="UTF-8"?>
<svg xmlns="http://www.w3.org/2000/svg" id="Dach" viewBox="0 0 192 192">
  <defs>
    <style>.cls-1{fill:#005092;stroke:#005192;stroke-miterlimit:10;}</style>
  </defs>
  <title>181105_KEMPEROL_Anwendungsgebiete</title>
  <path class="cls-1" d="M134.48,157c-5.1,0-11.27-1.28-18-3.84-14.86-5.6-31-16.67-45.52-31.17S45.35,91.35,39.74,76.49c-5.1-13.51-5.11-24.6,0-29.68.73-.73,1.47-1.51,2.24-2.32,4.63-4.87,9.87-10.35,16.81-10.1,4.78.19,9.41,3.16,14.15,9.07,14,17.43,7.7,23.64.39,30.84L72,75.58c-1.2,1.2-3.46,6.74,17.57,27.77,6.86,6.86,12.72,11.89,17.39,14.93,3,1.91,8.22,4.81,10.38,2.65l1.3-1.32c7.19-7.29,13.4-13.59,30.82.41,5.91,4.75,8.87,9.37,9.07,14.16.29,6.94-5.24,12.19-10.11,16.81-.81.77-1.59,1.51-2.32,2.24C143.59,155.75,139.56,157,134.48,157ZM58.26,38.5c-4.93,0-9.38,4.69-13.32,8.83-.79.84-1.56,1.65-2.31,2.4-3.79,3.78-3.4,13.71,1,25.3C49,89.36,59.74,105,73.84,119.1s29.73,24.83,44.06,30.23c11.59,4.38,21.52,4.75,25.3,1,.75-.75,1.56-1.52,2.39-2.31,4.24-4,9-8.58,8.83-13.65-.14-3.47-2.67-7.21-7.52-11.11-14.52-11.68-18.58-7.56-25.31-.73l-1.32,1.33c-3.22,3.23-8.45,2.51-15.54-2.1-4.92-3.2-11-8.41-18.06-15.47-17.46-17.45-23-28.13-17.58-33.61l1.32-1.3c6.84-6.73,11-10.79-.71-25.31-3.9-4.85-7.64-7.38-11.12-7.53Z"></path>
</svg>
