<?xml version="1.0" encoding="UTF-8"?>
<svg xmlns="http://www.w3.org/2000/svg" id="Dach" viewBox="0 0 192 192">
  <defs>
    <style>.cls-1{fill:none;stroke:#005092;stroke-linecap:round;stroke-linejoin:round;stroke-width:5px;}</style>
  </defs>
  <title>181105_KEMPEROL_Anwendungsgebiete</title>
  <path class="cls-1" d="M123.27,52.06c-4.7,1.88-8.2,7.49-9,12.16-1.26,7,2.48,12.76,4.57,16,1.46,2.27,3.18,4.07,6.61,7.65,2.87,3,3.4,3.21,8.21,7.88,1.5,1.46.54.56,8.21,8.35,3.86,3.91,5.05,5.1,6.39,7.41s2.54,4.39,2.51,7.19c-.06,4.61-3.34,8-4.11,8.81-2.13,2.21-4.05,2.82-3.88,3.3.26.68,4.53.15,8.22-1.68a17.66,17.66,0,0,0,8.32-23.61c-1.76-3.42-6.26-8-8.72-10.26-2.92-2.69-5.83-5.23-8.39-7.47-3.25-2.86-5-4.33-4.79-4.78.33-.62,1.24-.63,2.06-.27,0,0,2.24,1.16,3.93,1.92a27.1,27.1,0,0,0,5,1.82,20,20,0,0,0,5.47.52c4.45-.21,9.38-2.38,10.37-4.6a2.16,2.16,0,0,0-.7-3s-2.77-1.05-3.85-1.48a47.07,47.07,0,0,1-7.44-3.73c-2.65-1.65-4-2.51-5-4.09a20.24,20.24,0,0,1-1.8-3.82c-.93-2.38-2.88-8.25-4.6-10.14A15.45,15.45,0,0,0,123.27,52.06Z"></path>
  <path class="cls-1" d="M141.81,117.94c.61-.74-4.44-6.09-6.16-7.91-5.13-5.44-8.64-9.16-14.37-12.78-4.06-2.57-8.86-5.6-15.91-6.78a38.21,38.21,0,0,0-19,1.91,51.69,51.69,0,0,0-15,8.35c-4.85,3.56-5.56,5.06-13.86,11.82-4,3.27-6,4.9-8.38,6.52-11.64,8-21.93,9.81-21.62,11.12.24,1,6.66.26,7.33.18a41.15,41.15,0,0,0,11-3.05c8.13-3.33,14.36-6.5,16.25-7.47,13.42-6.88,11.61-6.26,15.22-7.91,7.46-3.41,13.25-6.06,21.39-7.13a43.24,43.24,0,0,1,17.45.61c6.47,1.69,12.29,5,16.85,7.65C138.24,116.08,141.35,118.47,141.81,117.94Z"></path>
</svg>
