<svg width="26" height="28" viewBox="0 0 26 28" fill="none" xmlns="http://www.w3.org/2000/svg">
<path d="M4.52603 11.6798C4.4411 11.9721 4.52603 12.2888 4.72015 12.5324C4.82934 12.6664 4.97493 12.7516 5.13266 12.8125C8.65109 13.9452 11.4294 16.722 12.5578 20.254C12.6548 20.5585 12.9096 20.7899 13.2129 20.863C13.2857 20.8751 13.3585 20.8873 13.4192 20.8873C13.6618 20.8873 13.8923 20.7899 14.0743 20.6194C14.1835 20.5098 14.2563 20.388 14.2927 20.254C15.421 16.7342 18.1873 13.9574 21.6936 12.8247C21.827 12.776 21.9605 12.7029 22.0697 12.5933C22.288 12.3741 22.3851 12.033 22.3123 11.7286C22.2395 11.4119 22.009 11.1683 21.7057 11.0709C18.1751 9.93822 15.3968 7.16136 14.2806 3.61721C14.1593 3.23965 13.8074 2.98389 13.4192 2.98389C13.0309 2.98389 12.6791 3.23965 12.5578 3.61721C11.4294 7.14918 8.66322 9.93822 5.14479 11.0709C4.85361 11.1683 4.63522 11.3997 4.55029 11.692L4.52603 11.6798ZM7.75328 11.9356C10.1677 10.669 12.1453 8.68376 13.407 6.26009C14.6688 8.69594 16.6464 10.6811 19.0729 11.9356C16.6586 13.2022 14.681 15.1875 13.4192 17.6111C12.1574 15.1753 10.1798 13.1901 7.75328 11.9356Z" fill="white"/>
<path d="M6.11517 18.0862C5.99385 17.7086 5.642 17.4529 5.25376 17.4529C4.86552 17.4529 4.51368 17.7086 4.39235 18.0862C3.82212 19.8765 2.42688 21.2772 0.643403 21.8496C0.364355 21.9348 0.145969 22.1662 0.0610415 22.4464C-0.0238862 22.7265 0.0246439 23.0431 0.206632 23.2745C0.315824 23.4207 0.473547 23.5425 0.655535 23.5912C2.43902 24.1636 3.83426 25.5642 4.40449 27.3546C4.50155 27.6591 4.7442 27.8905 5.05964 27.9635C5.13244 27.9757 5.20523 27.9879 5.27803 27.9879C5.52068 27.9879 5.7512 27.8905 5.92105 27.72C6.03024 27.6103 6.10304 27.4885 6.13944 27.3546C6.70966 25.5764 8.1049 24.1636 9.88839 23.5912C10.0218 23.5425 10.1553 23.4694 10.2524 23.3598C10.4707 23.1406 10.5678 22.7996 10.495 22.4951C10.4222 22.1906 10.1917 21.9348 9.88839 21.8374C8.1049 21.265 6.69753 19.8522 6.1273 18.0618L6.11517 18.0862ZM7.49828 22.7387C6.60047 23.3233 5.83612 24.0906 5.25376 24.9918C4.6714 24.0906 3.90705 23.3233 3.00924 22.7387C3.90705 22.1541 4.6714 21.3868 5.25376 20.4855C5.83612 21.3868 6.60047 22.1541 7.49828 22.7387Z" fill="white"/>
<path d="M0.679568 4.82299C0.752363 4.87171 0.825158 4.90825 0.910086 4.93261C2.12334 5.32234 3.06967 6.27232 3.45792 7.49024C3.55498 7.79472 3.80976 8.02613 4.11307 8.0992C4.18587 8.11138 4.25866 8.12356 4.31932 8.12356C4.56198 8.12356 4.79249 8.02613 4.96235 7.85562C5.07154 7.746 5.14434 7.62421 5.18073 7.49024C5.56897 6.2845 6.51531 5.33452 7.71643 4.94479C7.91055 4.88389 8.08041 4.74992 8.20173 4.57941C8.35946 4.33583 8.39585 4.04353 8.29879 3.77558C8.20173 3.50764 7.98335 3.28841 7.71643 3.20316C6.50318 2.81343 5.55684 1.86345 5.1686 0.645526C5.04728 0.26797 4.69543 0.012207 4.30719 0.012207C3.91895 0.012207 3.56711 0.26797 3.44578 0.645526C3.05754 1.86345 2.11121 2.81343 0.897953 3.20316C0.570375 3.31277 0.327724 3.60507 0.279194 3.94609C0.230664 4.28711 0.388387 4.64031 0.679568 4.83517V4.82299ZM3.14247 4.0557C3.59137 3.72687 3.97961 3.32495 4.31932 2.87432C4.65904 3.32495 5.04728 3.72687 5.49618 4.0557C5.04728 4.38454 4.65904 4.78646 4.31932 5.23709C3.97961 4.78646 3.59137 4.38454 3.14247 4.0557Z" fill="white"/>
<path d="M21.0744 17.1969C20.6861 18.4149 19.7398 19.3648 18.5265 19.7546C18.2232 19.852 17.9927 20.0956 17.9199 20.4122C17.8471 20.7167 17.9442 21.0456 18.1625 21.277C18.2596 21.3744 18.3931 21.4597 18.5265 21.4962C19.7398 21.8859 20.6861 22.8359 21.0744 24.0538C21.1714 24.3583 21.4262 24.5897 21.7295 24.6628C21.8023 24.675 21.8751 24.6871 21.9358 24.6871C22.1784 24.6871 22.4089 24.5897 22.5788 24.4192C22.688 24.3096 22.7608 24.1878 22.7972 24.0538C23.1854 22.8481 24.1317 21.8859 25.3329 21.5084C25.4057 21.484 25.4906 21.4475 25.5634 21.3988C25.8546 21.2039 26.0123 20.8629 25.9638 20.5097C25.9152 20.1687 25.6726 19.8764 25.3329 19.7667C24.1196 19.377 23.1733 18.427 22.785 17.2091C22.6758 16.8559 22.324 16.6245 21.9236 16.6245C21.5233 16.6245 21.1714 16.8559 21.0622 17.2091L21.0744 17.1969ZM21.9479 19.4379C22.2876 19.8885 22.6758 20.2905 23.1247 20.6193C22.6758 20.9481 22.2876 21.35 21.9479 21.8007C21.6203 21.35 21.2199 20.9481 20.771 20.6193C21.2199 20.2905 21.6082 19.8885 21.9479 19.4379Z" fill="white"/>
</svg>
