<?xml version="1.0" encoding="UTF-8"?>
<svg xmlns="http://www.w3.org/2000/svg" viewBox="0 0 25.1 49.301">
  <defs>
    <style>.cls-1{fill:#fff}</style>
  </defs>
  <g id="Group_2028" data-name="Group 2028">
    <g id="Group_2016" data-name="Group 2016">
      <path id="Path_634" data-name="Path 634" class="cls-1" d="M16.4 49.3H5.8V27.2H0V17h5.8v-5.7C5.8 6.1 9.1 0 18.3 0a53.23 53.23 0 0 1 5.7.3l1 .1-.2 9.5h-6.2c-2 0-2.2.5-2.2 2.4V17h8.7l-.5 10.2h-8.2v22.1zM8 47.1h6.2V25h8.3l.3-5.8h-8.6v-6.9c0-2.3.5-4.6 4.4-4.6h4l.2-5.3c-1-.1-2.6-.2-4.5-.2C10.7 2.2 8 6.9 8 11.3v7.9H2.2V25H8v22.1z"></path>
    </g>
  </g>
</svg>
