<?xml version="1.0" encoding="UTF-8"?>
<svg xmlns="http://www.w3.org/2000/svg" width="22.564" height="23.085" viewBox="0 0 22.564 23.085">
  <path id="filter" d="M21.58,0H1.444A.946.946,0,0,0,.6.514a.959.959,0,0,0,.075,1L8.053,11.9l.008.011a2.108,2.108,0,0,1,.414,1.251v8.472a.942.942,0,0,0,.942.948.97.97,0,0,0,.371-.074l4.145-1.581a.9.9,0,0,0,.618-.886V13.165a2.108,2.108,0,0,1,.414-1.251l.008-.011L22.349,1.511a.958.958,0,0,0,.075-1A.946.946,0,0,0,21.58,0ZM14.04,11.235a3.264,3.264,0,0,0-.636,1.93V19.9L9.621,21.347V13.165a3.262,3.262,0,0,0-.636-1.93L1.823,1.146H21.2Zm0,0" transform="translate(-0.231 0.25)" fill="#005192" stroke="#005192" stroke-width="0.5"></path>
</svg>
