<svg width="26" height="32" viewBox="0 0 26 32" fill="none" xmlns="http://www.w3.org/2000/svg">
<path d="M22.97 12.8051C22.7265 12.3831 22.5586 12.0201 22.5418 11.8007C22.5082 11.3111 22.8021 10.0618 22.3907 8.11192C22.2396 7.40287 21.6603 5.80752 20.7788 4.60889" stroke="white" stroke-width="1.5" stroke-linecap="round" stroke-linejoin="round"/>
<path d="M19.3514 24.9688L17.4373 26.4544L15.9766 31.156" stroke="white" stroke-width="1.5" stroke-linecap="round" stroke-linejoin="round"/>
<path d="M17.7397 16.4772L15.918 20.1406C15.918 20.1406 19.3432 24.9689 20.0316 25.6526C24.8337 23.5845 26.8905 16.6967 23.4569 12.5605L18.6548 14.6286" stroke="white" stroke-width="1.5" stroke-linecap="round" stroke-linejoin="round"/>
<path d="M15.3218 14.0798L18.6631 14.6285" stroke="white" stroke-width="1.5" stroke-linecap="round" stroke-linejoin="round"/>
<path d="M11.5521 18.3847C10.486 17.9036 9.05877 17.0848 9.05877 16.0044V13.9363C9.05877 13.2357 9.50371 12.5604 10.4272 12.5604C11.1576 12.5604 11.7201 12.5857 12.1398 13.2526L13.164 13.9447V12.2228C13.164 11.0748 13.164 9.63137 15.2712 8.94764C16.4634 8.39053 17.4204 6.81206 16.816 5.32643C17.8989 4.98035 20.3587 2.67595 20.3587 0.844238H11.7872C3.46755 1.0215 0.839844 5.75693 0.839844 9.80019C0.839844 13.8434 2.23345 17.8276 2.89667 19.7944C3.00581 20.1067 4.13917 20.419 4.23151 20.7313C4.9535 22.9767 5.39005 25.1798 3.95447 28.1763" stroke="white" stroke-width="1.5" stroke-linecap="round" stroke-linejoin="round"/>
<path d="M15.9179 20.1403L13.626 19.2202" stroke="white" stroke-width="1.5" stroke-linecap="round" stroke-linejoin="round"/>
<path d="M4.13916 20.6046L6.27994 19.6846" stroke="white" stroke-width="1.5" stroke-linecap="round" stroke-linejoin="round"/>
</svg>
