<svg width="15" height="30" viewBox="0 0 15 30" fill="none" xmlns="http://www.w3.org/2000/svg">
<path d="M6.13132 26.4459C7.34955 26.3357 8.24776 25.2588 8.13754 24.0405C8.02731 22.8223 6.95039 21.9241 5.73216 22.0343C4.51394 22.1445 3.61572 23.2215 3.72595 24.4397C3.83617 25.6579 4.91309 26.5561 6.13132 26.4459Z" stroke="#005091" stroke-width="1.5" stroke-linecap="round" stroke-linejoin="round"/>
<path d="M5.8916 21.9691V12.0947" stroke="#005091" stroke-width="1.5" stroke-linecap="round" stroke-linejoin="round"/>
<path d="M8.5305 20.6526V3.50107H8.52485C8.47212 2.11117 7.3327 1 5.93149 1C4.53029 1 3.3984 2.10364 3.33814 3.48412H3.33249V20.6507C2.2232 21.4568 1.5 22.762 1.5 24.2385C1.5 26.685 3.48315 28.67 5.93149 28.67C8.37795 28.67 10.363 26.6868 10.363 24.2385C10.363 22.762 9.64167 21.4568 8.5305 20.6507V20.6526Z" stroke="#005091" stroke-width="1.5" stroke-linecap="round" stroke-linejoin="round"/>
<path d="M11.0166 18.1628H13.9942" stroke="#005091" stroke-width="1.5" stroke-linecap="round" stroke-linejoin="round"/>
<path d="M11.0166 14.5562H12.6928" stroke="#005091" stroke-width="1.5" stroke-linecap="round" stroke-linejoin="round"/>
<path d="M11.0166 7.68945H12.6928" stroke="#005091" stroke-width="1.5" stroke-linecap="round" stroke-linejoin="round"/>
<path d="M11.0166 11.2964H13.9942" stroke="#005091" stroke-width="1.5" stroke-linecap="round" stroke-linejoin="round"/>
<path d="M11.0166 4.42969H13.9942" stroke="#005091" stroke-width="1.5" stroke-linecap="round" stroke-linejoin="round"/>
</svg>
