<?xml version="1.0" encoding="UTF-8"?>
<svg xmlns="http://www.w3.org/2000/svg" viewBox="0 0 16.845 20.654">
  <defs>
    <style>.cls-1{fill:none;stroke:#005192;stroke-linecap:round;stroke-linejoin:round;stroke-miterlimit:10}.cls-2{fill:#005192}</style>
  </defs>
  <g id="Group_2163" data-name="Group 2163">
    <path id="Rectangle_110" data-name="Rectangle 110" class="cls-1" d="M.5.5h15.845v19.653H.5z"></path>
    <path id="Line_62" data-name="Line 62" class="cls-1" d="M4.763 4.297h7.547"></path>
    <path id="Path_148" data-name="Path 148" class="cls-2" d="M5.608 8.208a1.02 1.02 0 1 0-1.02.978 1 1 0 0 0 1.02-.978"></path>
    <path id="Path_149" data-name="Path 149" class="cls-2" d="M9.557 8.208a1.02 1.02 0 1 0-1.02.978 1 1 0 0 0 1.02-.978"></path>
    <path id="Path_150" data-name="Path 150" class="cls-2" d="M13.33 8.208a1.02 1.02 0 1 0-1.02.978 1 1 0 0 0 1.02-.978"></path>
    <path id="Path_151" data-name="Path 151" class="cls-2" d="M5.608 11.9a1.02 1.02 0 1 0-1.02.978 1 1 0 0 0 1.02-.978"></path>
    <path id="Path_152" data-name="Path 152" class="cls-2" d="M9.557 11.9a1.02 1.02 0 1 0-1.02.978 1 1 0 0 0 1.02-.978"></path>
    <path id="Path_153" data-name="Path 153" class="cls-2" d="M13.33 11.9a1.02 1.02 0 1 0-1.02.978 1 1 0 0 0 1.02-.978"></path>
    <path id="Path_154" data-name="Path 154" class="cls-2" d="M5.608 15.59a1.02 1.02 0 1 0-1.02.98 1 1 0 0 0 1.02-.98"></path>
    <path id="Path_155" data-name="Path 155" class="cls-2" d="M9.557 15.59a1.02 1.02 0 1 0-1.02.98 1 1 0 0 0 1.02-.98"></path>
    <path id="Path_156" data-name="Path 156" class="cls-2" d="M13.33 15.59a1.02 1.02 0 1 0-1.02.98 1 1 0 0 0 1.02-.98"></path>
  </g>
</svg>
