<?xml version="1.0" encoding="UTF-8"?>
<svg xmlns="http://www.w3.org/2000/svg" xmlns:xlink="http://www.w3.org/1999/xlink" viewBox="0 0 106.227 93.853">
  <defs>
    <style>
      .cls-1 {
        fill: #f2f5f7;
      }

      .cls-2 {
        clip-path: url(#clip-path);
      }
    </style>
    <clipPath id="clip-path">
      <path id="Path_376" data-name="Path 376" class="cls-1" d="M0,62.7H106.227V-31.152H0Z" transform="translate(0 31.152)"></path>
    </clipPath>
  </defs>
  <g id="Group_1056" data-name="Group 1056" transform="translate(0 31.152)">
    <g id="Group_1052" data-name="Group 1052" class="cls-2" transform="translate(0 -31.152)">
      <g id="Group_1051" data-name="Group 1051" transform="translate(-0.001 -0.001)">
        <path id="Path_375" data-name="Path 375" class="cls-1" d="M66.238,22.487H65.174A14.131,14.131,0,0,0,39.735,10.27a10.835,10.835,0,0,0-1.949-.178H36.017A12.412,12.412,0,0,0,23.746-.528h-.352A19.476,19.476,0,0,0-13.124,4.82a19.952,19.952,0,0,0-.229,5.272,10.9,10.9,0,0,0-10.653,9.584A10.675,10.675,0,0,0-21.349,27.8h-4.477a7.083,7.083,0,0,0-7.083,7.083,7.082,7.082,0,0,0,7.083,7.08H4.524a7.079,7.079,0,0,0,6.83,5.311H53.843A7.082,7.082,0,0,0,59.974,36.65h6.264a7.081,7.081,0,1,0,0-14.163M52.075,6.552a10.58,10.58,0,0,1,9.168,15.934H48.237a10.537,10.537,0,0,0-5.149-10.969,10.6,10.6,0,0,1,8.987-4.965m-77.9,31.869a3.54,3.54,0,0,1-3.54-3.54,3.54,3.54,0,0,1,3.54-3.543h12.394V27.8a7.085,7.085,0,0,1-7.086-7.08,7.023,7.023,0,0,1,.036-.711,7.347,7.347,0,0,1,7.435-6.372h3.911l-.428-2.124a16.119,16.119,0,0,1-.066-6.068,15.933,15.933,0,0,1,30.323-3.4l.53,1.238,1.335-.175a8.774,8.774,0,0,1,9.948,7.423,8.554,8.554,0,0,1,.093,1.332v1.771h5.185a7.081,7.081,0,0,1,0,14.163H23.746v3.54a3.541,3.541,0,1,1,0,7.083ZM66.238,33.11H53.843v3.54a3.541,3.541,0,1,1,0,7.083H11.354a3.524,3.524,0,0,1-3.049-1.772h15.44a7.082,7.082,0,0,0,6.131-10.623h7.908a10.338,10.338,0,0,0,9.156-5.311h19.3a3.541,3.541,0,0,1,0,7.083" transform="translate(32.909 11.172)"></path>
      </g>
    </g>
    <g id="Group_1053" data-name="Group 1053" transform="translate(23.316 34.374)">
      <path id="Path_377" data-name="Path 377" class="cls-1" d="M11.426,3.981,9.655.914,4.645,3.806V-1.978H1.1V3.806L-3.906.914-5.677,3.981l5.01,2.892-5.01,2.892,1.771,3.067L1.1,9.94v5.784h3.54V9.94l5.01,2.892,1.771-3.067L6.416,6.873Z" transform="translate(5.677 1.978)"></path>
    </g>
    <g id="Group_1054" data-name="Group 1054" transform="translate(51.572 44.998)">
      <path id="Path_378" data-name="Path 378" class="cls-1" d="M4.531,0V5.784l-5.01-2.9L-2.251,5.956l5.01,2.9-5.01,2.892L-.48,14.811l5.01-2.892V17.7H8.068V11.918l5.016,2.892,1.768-3.067L9.842,8.851l5.01-2.9L13.084,2.889l-5.016,2.9V0Z" transform="translate(2.251)"></path>
    </g>
    <g id="Group_1055" data-name="Group 1055" transform="translate(74.686 30.833)">
      <path id="Path_379" data-name="Path 379" class="cls-1" d="M11.426,3.981,9.655.914,4.645,3.806V-1.978H1.1V3.806L-3.906.914-5.677,3.981l5.01,2.892-5.01,2.892,1.771,3.067L1.1,9.94v5.787h3.54V9.94l5.01,2.892,1.771-3.067L6.416,6.873Z" transform="translate(5.677 1.978)"></path>
    </g>
  </g>
</svg>
