<?xml version="1.0" encoding="UTF-8"?>
<svg xmlns="http://www.w3.org/2000/svg" viewBox="0 0 36.423 26.741">
  <defs>
    <style>.cls-1{fill:#005192}</style>
  </defs>
  <g id="Group_1312" data-name="Group 1312">
    <g id="Group_646" data-name="Group 646">
      <g id="Group_645" data-name="Group 645">
        <path id="Path_273" data-name="Path 273" class="cls-1" d="M18.212 0a13.37 13.37 0 1 0 13.37 13.37A13.407 13.407 0 0 0 18.212 0zm0 25.526A12.155 12.155 0 1 1 30.367 13.37a12.19 12.19 0 0 1-12.155 12.156z"></path>
        <path id="Path_274" data-name="Path 274" class="cls-1" d="M6.182 1.34a.56.56 0 0 0 0-.837.56.56 0 0 0-.838 0 18.214 18.214 0 0 0 0 25.777.538.538 0 0 0 .42.168.538.538 0 0 0 .418-.168.56.56 0 0 0 0-.838 17.025 17.025 0 0 1 0-24.1z"></path>
        <path id="Path_275" data-name="Path 275" class="cls-1" d="M31.08.503a.56.56 0 0 0-.838 0 .56.56 0 0 0 0 .838 17.05 17.05 0 0 1 0 24.06.56.56 0 0 0 0 .838.608.608 0 0 0 .838 0 18.164 18.164 0 0 0 0-25.735z"></path>
        <path id="Path_276" data-name="Path 276" class="cls-1" d="M23.074 18.237h-1.8V9.724a.55.55 0 0 0-.587-.587h-5.45a.55.55 0 0 0-.588.587v2.43a.55.55 0 0 0 .586.588h1.216v5.45h-1.8a.55.55 0 0 0-.587.586v2.43a.55.55 0 0 0 .587.588h8.51a.55.55 0 0 0 .587-.587v-2.433a.717.717 0 0 0-.676-.54zm-.63 2.43h-7.292v-1.22h1.8a.55.55 0 0 0 .587-.586v-6.705a.55.55 0 0 0-.588-.587H15.74v-1.215h4.232v8.51a.55.55 0 0 0 .587.586h1.8l.083 1.215z"></path>
        <path id="Path_277" data-name="Path 277" class="cls-1" d="M18.212 7.88a2.43 2.43 0 1 0-2.43-2.43 2.433 2.433 0 0 0 2.43 2.43zm0-3.647a1.216 1.216 0 1 1-1.216 1.216 1.216 1.216 0 0 1 1.216-1.216z"></path>
      </g>
    </g>
  </g>
</svg>
