<?xml version="1.0" encoding="UTF-8"?>
<svg xmlns="http://www.w3.org/2000/svg" id="Group_2124" width="1.48" height="1.371" viewBox="0 0 1.48 1.371">
  <g id="Group_1568">
    <g id="Group_135">
      <g id="Group_134">
        <path id="Path_75" fill="#005192" d="M1.085.79L.88.624A.068.068 0 0 0 .804.622L.78.602A.136.136 0 0 0 .785.575.118.118 0 0 0 .72.47V.324A.02.02 0 0 0 .7.305a.02.02 0 0 0-.02.02v.132H.657V.418C.657.407.65.4.64.4A.026.026 0 0 1 .613.372v-.26C.613.085.626.058.65.04a.09.09 0 0 1 .034.07v.095c0 .01.01.02.02.02s.02-.01.02-.02v-.09A.13.13 0 0 0 .66.003a.026.026 0 0 0-.02 0 .134.134 0 0 0-.066.114v.26c0 .03.02.054.046.062v.028a.12.12 0 0 0-.068.107V.58l-.31.183A.13.13 0 0 0 .18.875a.02.02 0 0 0 .01.018C.21.903.232.91.254.91A.12.12 0 0 0 .32.89L.544.757a.064.064 0 0 0 .03-.04.08.08 0 0 0 0-.03L.598.67A.057.057 0 0 0 .61.68v.65H.536a.02.02 0 0 0-.02.02c0 .012.007.02.02.02h.26c.012 0 .022-.007.022-.02a.02.02 0 0 0-.02-.02H.724V.69l.27.214c.02.02.05.03.08.03.014 0 .03-.003.044-.008.007-.002.012-.01.013-.016a.132.132 0 0 0-.045-.12zM.538.662C.533.665.53.67.528.675s0 .01.003.015c.005.006.005.013.003.02A.026.026 0 0 1 .52.727L.298.86a.09.09 0 0 1-.08.005A.092.092 0 0 1 .26.8L.557.623a.088.088 0 0 0 .012.02l-.03.02zm.144.67h-.03v-.64l.014.002h.016v.637zM.666.652a.08.08 0 0 1 0-.157.08.08 0 0 1 .078.08.078.078 0 0 1-.078.078zm.35.222L.75.66C.754.655.76.648.764.64l.028.023A.02.02 0 0 0 .82.66.024.024 0 0 1 .857.656L1.06.82a.092.092 0 0 1 .033.074.087.087 0 0 1-.076-.02z"></path>
      </g>
    </g>
    <g id="Group_137">
      <g id="Group_136">
        <path id="Path_76" fill="#005192" d="M1.1.255a.074.074 0 0 0-.075.074c0 .01.01.02.02.02s.02-.01.02-.02c0-.02.015-.035.034-.035s.033.015.033.034-.015.033-.034.033H.857a.02.02 0 0 0-.02.02c0 .01.01.02.02.02h.24a.074.074 0 0 0 0-.148z"></path>
      </g>
    </g>
    <g id="Group_139">
      <g id="Group_138">
        <path id="Path_77" fill="#005192" d="M1.256.488H.99a.02.02 0 0 0-.02.02c0 .01.008.02.02.02h.266c.02 0 .033.015.033.034s-.015.033-.034.033a.033.033 0 0 1-.033-.033.02.02 0 0 0-.02-.02.02.02 0 0 0-.02.02c0 .04.032.074.073.075A.074.074 0 0 0 1.258.49V.486z"></path>
      </g>
    </g>
    <g id="Group_141">
      <g id="Group_140">
        <path id="Path_78" fill="#005192" d="M.437 1.136H.17a.02.02 0 0 0-.02.02c0 .01.008.02.02.02h.267c.02 0 .033.015.033.034s-.015.033-.033.033-.034-.015-.034-.033c0-.01-.01-.02-.02-.02s-.02.01-.02.02a.074.074 0 1 0 .075-.073z"></path>
      </g>
    </g>
    <g id="Group_143">
      <g id="Group_142">
        <path id="Path_79" fill="#005192" d="M.375.362H.24c-.01 0-.02.01-.02.02s.01.02.02.02h.135c.01 0 .02-.008.02-.02a.02.02 0 0 0-.02-.02z"></path>
      </g>
    </g>
    <g id="Group_145">
      <g id="Group_144">
        <path id="Path_80" fill="#005192" d="M1.22 1.056H.97a.02.02 0 0 0-.02.02c0 .01.008.02.02.02h.25c.012 0 .02-.008.02-.02.002-.01-.006-.02-.017-.02H1.22z"></path>
      </g>
    </g>
  </g>
</svg>
