<?xml version="1.0" encoding="UTF-8"?>
<svg xmlns="http://www.w3.org/2000/svg" viewBox="0 0 20.777 19.065">
  <defs>
    <style>.cls-1{fill:#005192}</style>
  </defs>
  <path id="Path_892" data-name="Path 892" class="cls-1" d="M14.942 15.93l-1.357-5.07 4.588-.213 1.688 5.72zM2.686 12.75l4.813-.106.408 5.643-4.958-.078zM5.2 7.384c.667.9 1.374 1.76 1.906 2.39l.308 2.108-4.846.108-1.62-5.514zm1.065-6.176a2.03 2.03 0 1 1-1.65 2.35 2.03 2.03 0 0 1 1.65-2.35m6.052 2.63l.37 6.395-4.52 1.51-.175-1.19c.23-.59 1.01-2.614 1.542-4.51zm-3.646 14.3l-.4-5.614 4.567-1.526 1.352 5.06zm9.4-8.244l-4.615.213-.38-6.55 4.94.97zm2.693 6.81l-1.918-6.5-.062-6a.39.39 0 0 0-.31-.377L12.737 2.7h-.005c-.016 0-.032-.007-.05-.007h-.038c-.017 0-.028.006-.045.006a.05.05 0 0 0-.028.005.335.335 0 0 0-.14.073h-.006l-2.57 2.036a5.73 5.73 0 0 0 .18-1.974 3.43 3.43 0 1 0-6.76 1.183 7.723 7.723 0 0 0 1.257 2.434l-4.06-.87a.4.4 0 0 0-.364.113.376.376 0 0 0-.084.37l1.873 6.372.3 6.164a.39.39 0 0 0 .337.365h.045l5.744.1h.035a.33.33 0 0 0 .1-.02h.01l6.238-2.357 5.665.5a.374.374 0 0 0 .33-.14.382.382 0 0 0 .068-.353"></path>
</svg>
