<?xml version="1.0" encoding="UTF-8"?>
<svg xmlns="http://www.w3.org/2000/svg" viewBox="0 0 29.483 36.09">
  <defs>
    <style>.cls-1{fill:none;stroke:#fff;stroke-linecap:round;stroke-linejoin:round;stroke-miterlimit:10;stroke-width:2px}.cls-2{fill:#fff}</style>
  </defs>
  <g id="Group_2134" data-name="Group 2134">
    <path id="Rectangle_110" data-name="Rectangle 110" class="cls-1" d="M1 1h27.483v34.09H1z"></path>
    <path id="Line_62" data-name="Line 62" class="cls-1" d="M8.395 7.587h13.09"></path>
    <path id="Path_148" data-name="Path 148" class="cls-2" d="M9.858 14.374a1.77 1.77 0 1 0-1.77 1.7 1.736 1.736 0 0 0 1.77-1.7"></path>
    <path id="Path_149" data-name="Path 149" class="cls-2" d="M16.71 14.374a1.77 1.77 0 1 0-1.77 1.7 1.736 1.736 0 0 0 1.77-1.7"></path>
    <path id="Path_150" data-name="Path 150" class="cls-2" d="M23.254 14.374a1.77 1.77 0 1 0-1.77 1.7 1.736 1.736 0 0 0 1.77-1.7"></path>
    <path id="Path_151" data-name="Path 151" class="cls-2" d="M9.858 20.777a1.77 1.77 0 1 0-1.77 1.7 1.736 1.736 0 0 0 1.77-1.7"></path>
    <path id="Path_152" data-name="Path 152" class="cls-2" d="M16.71 20.777a1.77 1.77 0 1 0-1.77 1.7 1.736 1.736 0 0 0 1.77-1.7"></path>
    <path id="Path_153" data-name="Path 153" class="cls-2" d="M23.254 20.777a1.77 1.77 0 1 0-1.77 1.7 1.736 1.736 0 0 0 1.77-1.7"></path>
    <path id="Path_154" data-name="Path 154" class="cls-2" d="M9.858 27.18a1.77 1.77 0 1 0-1.77 1.7 1.736 1.736 0 0 0 1.77-1.7"></path>
    <path id="Path_155" data-name="Path 155" class="cls-2" d="M16.71 27.18a1.77 1.77 0 1 0-1.77 1.7 1.736 1.736 0 0 0 1.77-1.7"></path>
    <path id="Path_156" data-name="Path 156" class="cls-2" d="M23.254 27.18a1.77 1.77 0 1 0-1.77 1.7 1.736 1.736 0 0 0 1.77-1.7"></path>
  </g>
</svg>
