<?xml version="1.0" encoding="UTF-8"?>
<svg xmlns="http://www.w3.org/2000/svg" viewBox="0 0 192 192">
  <defs>
    <style>.cls-1{fill:none;stroke:#c5d7e2;stroke-linecap:round;stroke-linejoin:round;stroke-width:6px;}</style>
  </defs>
  <title>181105_KEMPEROL_Anwendungsgebiete</title>
  <g id="Terrasse">
    <line class="cls-1" x1="95.83" y1="114.21" x2="95.83" y2="77.11"></line>
    <line class="cls-1" x1="95.83" y1="150.04" x2="95.83" y2="122.25"></line>
    <path class="cls-1" d="M51.89,75.26a34.28,34.28,0,0,1,21.68,7.4h1a35.46,35.46,0,0,1,43.36,0h1a35.46,35.46,0,0,1,43.36,0h.06S155,38.27,95.83,38.27s-66.6,44.39-66.6,44.39h1A34.23,34.23,0,0,1,51.89,75.26Z"></path>
    <line class="cls-1" x1="26.48" y1="157.72" x2="165.52" y2="157.72"></line>
    <rect class="cls-1" x="66.46" y="114.63" width="57.73" height="7.36"></rect>
    <polyline class="cls-1" points="156.84 149.78 144.27 130.62 130.76 150.32"></polyline>
    <path class="cls-1" d="M158.86,108.26s-4.05,16.87-29.6,22.2"></path>
    <path class="cls-1" d="M158.86,108.26v13.43a8.77,8.77,0,0,1-8.77,8.77H129.26"></path>
    <polyline class="cls-1" points="34.81 149.78 47.38 130.62 60.89 150.32"></polyline>
    <path class="cls-1" d="M32.79,108.26s4.05,16.87,29.6,22.2"></path>
    <path class="cls-1" d="M32.79,108.26v13.43a8.78,8.78,0,0,0,8.78,8.77H62.39"></path>
  </g>
</svg>
