<?xml version="1.0" encoding="UTF-8"?>
<svg xmlns="http://www.w3.org/2000/svg" viewBox="0 0 18.853 18.314">
  <defs>
    <style>.cls-1{fill:#6a818e}</style>
  </defs>
  <path id="Path_849" data-name="Path 849" class="cls-1" d="M14.286 9.584a.51.51 0 0 0-.723-.723L9.946 12.48V.5a.5.5 0 0 0-.995 0v11.978L5.336 8.86a.55.55 0 0 0-.723 0 .55.55 0 0 0 0 .724l4.52 4.52a.55.55 0 0 0 .724 0zm3.572 3.3a.5.5 0 1 1 .995 0v4.928a.5.5 0 0 1-.5.5H.5a.474.474 0 0 1-.5-.5v-4.927a.5.5 0 0 1 .5-.5.5.5 0 0 1 .5.5v4.43h16.813v-4.43z"></path>
</svg>
