<?xml version="1.0" encoding="UTF-8"?>
<svg xmlns="http://www.w3.org/2000/svg" viewBox="0 0 57.931 80.466">
  <defs>
    <style>.cls-1{fill:#fff}</style>
  </defs>
  <g id="Group_1926" data-name="Group 1926">
    <g id="Group_1923" data-name="Group 1923">
      <g id="Group_1922" data-name="Group 1922">
        <path id="Path_649" data-name="Path 649" class="cls-1" d="M36.4 8.872c-1.86-2.733-3.5-5.247-5.03-7.542a3.327 3.327 0 0 0-.87-.875 2.848 2.848 0 0 0-3.935.874c-1.42 2.3-3.06 4.7-5.028 7.54C12.9 21.55 0 40.68 0 51.61a28.836 28.836 0 0 0 8.526 20.44 29.2 29.2 0 0 0 20.44 8.415A29.11 29.11 0 0 0 57.93 51.5c0-10.935-12.897-29.95-21.53-42.628zm9.07 59.133a23.118 23.118 0 0 1-16.5 6.777 23.578 23.578 0 0 1-16.5-6.777 23.118 23.118 0 0 1-6.777-16.5c0-9.182 12.35-27.435 20.55-39.568.983-1.42 1.857-2.842 2.732-4.044.874 1.2 1.75 2.623 2.733 4.044 8.2 12.242 20.55 30.387 20.55 39.568a23.578 23.578 0 0 1-6.788 16.5z"></path>
      </g>
    </g>
    <g id="Group_1925" data-name="Group 1925">
      <g id="Group_1924" data-name="Group 1924">
        <path id="Path_650" data-name="Path 650" class="cls-1" d="M45.908 49.533a2.8 2.8 0 0 0-2.95 2.623 14.07 14.07 0 0 1-2.078 6.668 13.284 13.284 0 0 1-5.028 4.81 2.888 2.888 0 0 0 2.842 5.027 18.94 18.94 0 0 0 7-6.776 18.6 18.6 0 0 0 2.842-9.4 2.8 2.8 0 0 0-2.628-2.95z"></path>
      </g>
    </g>
  </g>
</svg>
