<?xml version="1.0" encoding="UTF-8"?>
<svg xmlns="http://www.w3.org/2000/svg" viewBox="0 0 50.815 30.158">
  <defs>
    <style>.cls-1{opacity:.997}.cls-2{fill:none;stroke:#6a818e;stroke-linejoin:round;stroke-miterlimit:10;stroke-width:1.5px}</style>
  </defs>
  <g id="Group_919" data-name="Group 919" class="cls-1">
    <g id="Group_4" data-name="Group 4">
      <g id="Group_3" data-name="Group 3">
        <g id="Group_2" data-name="Group 2">
          <path id="Path_3" data-name="Path 3" class="cls-2" d="M14.026 20.95C4.893 29.07.836 29.324.75 29.408c12.26 0 24.946-17.842 41.1-4.482-9.643-12.092-18.184-12.602-27.824-3.974z"></path>
        </g>
      </g>
    </g>
    <g id="Group_7" data-name="Group 7">
      <g id="Group_6" data-name="Group 6">
        <g id="Group_5" data-name="Group 5">
          <path id="Path_4" data-name="Path 4" class="cls-2" d="M49.627 11.48c.338-.168.93-.845-.338-1.014-1.185-.17-5.328-1.776-5.836-3.3s-.676-1.607-1.1-2.62c-1.86-4.483-6.765-4.652-9.048-2.2-2.537 2.96-2.2 6.6 3.72 11.922 4.483 4.06 12.6 9.217 5.5 14.29 7.1-1.86 7.02-7.7 4.483-10.315-.847-.846-5.413-4.99-6.174-5.666a3.755 3.755 0 0 1-.676-.93c-.085-.254-.17-.423-.254-.676 1.438.508 2.706 1.44 4.9 1.692 2.2.34 4.82-1.18 4.82-1.18z"></path>
        </g>
      </g>
    </g>
  </g>
</svg>
