<?xml version="1.0" encoding="UTF-8"?>
<svg xmlns="http://www.w3.org/2000/svg" viewBox="0 0 52.244 52.992">
  <defs>
    <style>.cls-1{fill:none;stroke:#005192;stroke-linecap:round;stroke-linejoin:round;stroke-miterlimit:10;stroke-width:1.5px}</style>
  </defs>
  <g id="Group_1313" data-name="Group 1313">
    <path id="Line_51" data-name="Line 51" class="cls-1" d="M13.84 39.116l-.058-24.622"></path>
    <path id="Line_52" data-name="Line 52" class="cls-1" d="M38.462 14.494l-.06 24.622"></path>
    <path id="Path_116" data-name="Path 116" class="cls-1" d="M38.463 14.02c0-2.255-5.64-3.978-12.34-4.035S13.9 11.765 13.96 13.96c0 2.255 5.46 4.035 12.164 3.977s12.398-1.722 12.34-3.918z"></path>
    <path id="Path_117" data-name="Path 117" class="cls-1" d="M13.9 39.057c0 2.255 5.458 4.034 12.163 3.975s12.22-1.78 12.284-3.98"></path>
    <path id="Path_118" data-name="Path 118" class="cls-1" d="M13.9 15.8s-5.278 7.418.356 13.17c3.916 4.034 5.636-11.45 5.636-11.45"></path>
    <path id="Path_119" data-name="Path 119" class="cls-1" d="M29.563 25.292a3.066 3.066 0 0 1-3.026 3.144 3.065 3.065 0 0 1-3.026-3.144c0-1.78 2.137-6.764 3.086-7.357.178-.178 2.967 5.578 2.967 7.357z"></path>
    <path id="Path_120" data-name="Path 120" class="cls-1" d="M33.598 36.21a3.066 3.066 0 0 1-3.026 3.143 3.065 3.065 0 0 1-3.026-3.144c.06-1.722 2.136-6.765 3.085-7.358.12-.12 2.968 5.578 2.968 7.357z"></path>
  </g>
</svg>
