<?xml version="1.0" encoding="UTF-8"?>
<svg xmlns="http://www.w3.org/2000/svg" id="Layer_1" width="97.05" height="56.36" viewBox="0 0 97.05 56.36">
  <g id="Group_919">
    <g id="Group_4">
      <g id="Group_3">
        <g id="Group_2">
          <path id="Path_3" fill="none" stroke="#025291" stroke-miterlimit="10" d="M26.126 39.72C8.153 55.696.166 56.196 0 56.36c24.128 0 49.092-35.113 80.88-8.82-18.976-23.796-35.783-24.8-54.754-7.82z"></path>
        </g>
      </g>
    </g>
    <g id="Group_7">
      <g id="Group_6">
        <g id="Group_5">
          <path id="Path_4" fill="none" stroke="#025291" stroke-miterlimit="10" d="M96.186 21.083c.666-.333 1.83-1.665-.664-1.998-2.33-.333-10.484-3.495-11.484-6.494 0 0-1.33-3.162-2.164-5.157-3.66-8.82-13.312-9.153-17.807-4.33-4.992 5.825-4.328 12.988 7.324 23.463 8.82 7.99 24.796 18.14 10.823 28.124 13.973-3.66 13.812-15.15 8.82-20.3-1.664-1.665-10.65-9.82-12.148-11.15a7.454 7.454 0 0 1-1.33-1.83c-.168-.5-.332-.834-.5-1.332 2.83.998 5.326 2.83 9.645 3.328 4.325.673 9.486-2.323 9.486-2.323z"></path>
        </g>
      </g>
    </g>
  </g>
</svg>
