<?xml version="1.0" encoding="UTF-8"?>
<svg xmlns="http://www.w3.org/2000/svg" viewBox="0 0 30.505 37.894">
  <defs>
    <style>.cls-1{fill:#005192}</style>
  </defs>
  <g id="Group_1311" data-name="Group 1311">
    <g id="Group_642" data-name="Group 642">
      <path id="Path_272" data-name="Path 272" class="cls-1" d="M29.052 14.842v-6h-7.768a.74.74 0 0 1-.442-1.326 3.323 3.323 0 0 0 1.39-2.716 3.348 3.348 0 1 0-6.696 0 3.323 3.323 0 0 0 1.39 2.716.69.69 0 0 1 .252.82.74.74 0 0 1-.695.506H8.905v7.768a.685.685 0 0 1-.505.695.79.79 0 0 1-.82-.253 3.323 3.323 0 0 0-2.717-1.39 3.348 3.348 0 1 0 0 6.696 3.323 3.323 0 0 0 2.716-1.39.69.69 0 0 1 .82-.252.74.74 0 0 1 .505.695v7.58h7.705a.74.74 0 0 1 .442 1.325 3.323 3.323 0 0 0-1.39 2.716 3.348 3.348 0 0 0 6.696 0 3.323 3.323 0 0 0-1.39-2.715.69.69 0 0 1-.252-.82.74.74 0 0 1 .695-.506h7.643v-6a4.61 4.61 0 0 1-2.59.757 4.8 4.8 0 1 1 0-9.6 4.7 4.7 0 0 1 2.59.695zM30.5 8.147v8.463a.74.74 0 0 1-1.326.442 3.323 3.323 0 0 0-2.716-1.39 3.348 3.348 0 1 0 0 6.696 3.323 3.323 0 0 0 2.716-1.39.69.69 0 0 1 .82-.252.74.74 0 0 1 .506.695v8.337a.768.768 0 0 1-.758.758h-6.69a4.61 4.61 0 0 1 .758 2.59 4.852 4.852 0 0 1-4.863 4.8 4.8 4.8 0 0 1-4.8-4.8 4.61 4.61 0 0 1 .758-2.59H8.147a.768.768 0 0 1-.758-.758v-6.753a4.61 4.61 0 0 1-2.59.753 4.8 4.8 0 1 1 0-9.6 4.61 4.61 0 0 1 2.59.758V8.147a.768.768 0 0 1 .757-.758H14.9a4.61 4.61 0 0 1-.758-2.59 4.8 4.8 0 1 1 9.6 0 4.61 4.61 0 0 1-.758 2.59h6.758a.73.73 0 0 1 .758.757z"></path>
    </g>
  </g>
</svg>
