<?xml version="1.0" encoding="UTF-8"?>
<svg xmlns="http://www.w3.org/2000/svg" viewBox="0 0 40.937 37.566">
  <defs>
    <style>.cls-1{fill:#fff}</style>
  </defs>
  <path id="Path_811" data-name="Path 811" class="cls-1" d="M29.442 31.39l-2.674-9.992 9.04-.42 3.326 11.272zM5.295 25.122l9.482-.21.806 11.118-9.77-.154zm4.95-10.576a97.435 97.435 0 0 0 3.76 4.708l.607 4.155-9.55.21L1.87 12.756zm2.1-12.168a4 4 0 1 1-3.248 4.63 4 4 0 0 1 3.25-4.63M24.27 7.56l.73 12.6-8.908 2.973-.342-2.343c.453-1.16 1.99-5.15 3.04-8.885zm-7.183 28.17l-.8-11.063 9-3.007 2.663 9.97zm18.51-16.246l-9.1.42-.75-12.908 9.736 1.912zm5.3 13.416L37.12 20.094 36.996 8.28a.766.766 0 0 0-.608-.74L25.082 5.32h-.01c-.034 0-.067-.012-.1-.012h-.078c-.033 0-.055.01-.09.01a.1.1 0 0 0-.054.012.66.66 0 0 0-.275.144h-.01l-5.06 4.01a11.3 11.3 0 0 0 .355-3.89A6.76 6.76 0 1 0 6.443 7.928a15.216 15.216 0 0 0 2.475 4.8l-8-1.713a.786.786 0 0 0-.718.22.74.74 0 0 0-.166.73l3.69 12.554.587 12.146a.768.768 0 0 0 .664.718h.088l11.317.188h.066a.65.65 0 0 0 .2-.044h.022l12.29-4.642 11.16.995a.736.736 0 0 0 .653-.277.752.752 0 0 0 .133-.7"></path>
</svg>
