<?xml version="1.0" encoding="UTF-8"?>
<svg xmlns="http://www.w3.org/2000/svg" id="Group_1310" data-name="Group 1310" viewBox="0 0 32.784 32.784">
  <defs>
    <style>.cls-1{fill:#005192}</style>
  </defs>
  <g id="Group_557" data-name="Group 557">
    <path id="Path_214" data-name="Path 214" class="cls-1" d="M18.415 29.665a.548.548 0 0 0-.775.775l2.183 2.183a.533.533 0 0 0 .384.16.523.523 0 0 0 .384-.16.553.553 0 0 0 0-.775z"></path>
    <path id="Path_215" data-name="Path 215" class="cls-1" d="M16.392 26.227a.544.544 0 0 0-.544.544v1.416l-3.663 3.663a.553.553 0 0 0 0 .774.533.533 0 0 0 .384.16.523.523 0 0 0 .383-.16l3.823-3.823a.548.548 0 0 0 .16-.383v-1.64a.545.545 0 0 0-.544-.55z"></path>
    <path id="Path_216" data-name="Path 216" class="cls-1" d="M32.24 1.095h-15.3v-.55a.544.544 0 1 0-1.09 0v.543H.545A.544.544 0 0 0 0 1.633v2.183a.544.544 0 0 0 .544.544h28.41a.544.544 0 0 0 0-1.09H1.095V2.184H31.7v1.095h-.544a.544.544 0 0 0-.544.544V22.4a1.642 1.642 0 0 1-1.64 1.64H3.823a1.642 1.642 0 0 1-1.64-1.64V6.006a.544.544 0 0 0-1.088 0V22.4a2.737 2.737 0 0 0 2.734 2.734H28.96A2.737 2.737 0 0 0 31.7 22.4V4.373h.544a.544.544 0 0 0 .544-.544V1.64a.544.544 0 0 0-.548-.545z"></path>
    <path id="Path_217" data-name="Path 217" class="cls-1" d="M24.588 10.93a1.558 1.558 0 0 1 1.64 1.64.544.544 0 0 0 1.088 0 2.734 2.734 0 1 0-5.468 0v2.182a2.734 2.734 0 1 0 5.468 0 .544.544 0 0 0-.544-.544h-.006a.544.544 0 0 0-.544.544 1.64 1.64 0 1 1-3.278 0V12.57a1.57 1.57 0 0 1 1.644-1.64z"></path>
    <path id="Path_218" data-name="Path 218" class="cls-1" d="M10.97 16.06a.54.54 0 0 0 .505.332.5.5 0 0 0 .21-.045.552.552 0 0 0 .296-.717L9.248 9.073a.538.538 0 0 0-.506-.333.555.555 0 0 0-.505.333L5.507 15.64a.548.548 0 0 0 1.012.423l.313-.756h1.364a.544.544 0 1 0 0-1.09h-.91l1.46-3.5z"></path>
    <path id="Path_219" data-name="Path 219" class="cls-1" d="M14.752 12.02a.544.544 0 0 0-.544.543v6.557a.544.544 0 0 0 .544.544h2.183c.948 0 2.734-.455 2.734-2.183a1.886 1.886 0 0 0-.693-1.516 2.57 2.57 0 0 0-.064-3.573 2.633 2.633 0 0 0-2.107-.358.548.548 0 0 0 .263 1.063 1.657 1.657 0 0 1 1.17.16 1.14 1.14 0 0 1 .34.948.948.948 0 0 1-1 1.153 3.95 3.95 0 0 0-.64-.058.552.552 0 0 0-.544.48.543.543 0 0 0 .41.6 2.97 2.97 0 0 0 .672.077c.48.1 1.1.36 1.1 1.03 0 1.07-1.575 1.096-1.64 1.096H15.3v-6.01a.558.558 0 0 0-.548-.55z"></path>
  </g>
</svg>
