<?xml version="1.0" encoding="UTF-8"?>
<svg xmlns="http://www.w3.org/2000/svg" width="15.109" height="18.501" viewBox="0 0 15.109 18.501">
  <g id="Group_2371" data-name="Group 2371" transform="translate(-1541.284 -809.723)">
    <g id="Group_1745" data-name="Group 1745" transform="translate(1541.784 810.223)">
      <rect id="Rectangle_110" data-name="Rectangle 110" width="14.109" height="17.501" transform="translate(0 0)" stroke-width="1" stroke="#6a818e" stroke-linecap="round" stroke-linejoin="round" stroke-miterlimit="10" fill="none"></rect>
      <line id="Line_62" data-name="Line 62" x2="6.72" transform="translate(3.797 3.382)" fill="none" stroke="#6a818e" stroke-linecap="round" stroke-linejoin="round" stroke-miterlimit="10" stroke-width="1"></line>
      <path id="Path_148" data-name="Path 148" d="M636.517,672.171a.909.909,0,1,0-.908.871.891.891,0,0,0,.908-.871" transform="translate(-631.969 -665.306)" fill="#6a818e"></path>
      <path id="Path_149" data-name="Path 149" d="M696.917,672.171a.909.909,0,1,0-.908.871.891.891,0,0,0,.908-.871" transform="translate(-688.852 -665.306)" fill="#6a818e"></path>
      <path id="Path_150" data-name="Path 150" d="M754.617,672.171a.909.909,0,1,0-.908.871.891.891,0,0,0,.908-.871" transform="translate(-743.192 -665.306)" fill="#6a818e"></path>
      <path id="Path_151" data-name="Path 151" d="M636.517,731.071a.909.909,0,1,0-.908.871.891.891,0,0,0,.908-.871" transform="translate(-631.969 -720.919)" fill="#6a818e"></path>
      <path id="Path_152" data-name="Path 152" d="M696.917,731.071a.909.909,0,1,0-.908.871.891.891,0,0,0,.908-.871" transform="translate(-688.852 -720.919)" fill="#6a818e"></path>
      <path id="Path_153" data-name="Path 153" d="M754.617,731.071a.909.909,0,1,0-.908.871.891.891,0,0,0,.908-.871" transform="translate(-743.192 -720.919)" fill="#6a818e"></path>
      <path id="Path_154" data-name="Path 154" d="M636.517,789.971a.909.909,0,1,0-.908.87.891.891,0,0,0,.908-.87" transform="translate(-631.969 -776.532)" fill="#6a818e"></path>
      <path id="Path_155" data-name="Path 155" d="M696.917,789.971a.909.909,0,1,0-.908.87.891.891,0,0,0,.908-.87" transform="translate(-688.852 -776.532)" fill="#6a818e"></path>
      <path id="Path_156" data-name="Path 156" d="M754.617,789.971a.909.909,0,1,0-.908.87.891.891,0,0,0,.908-.87" transform="translate(-743.192 -776.532)" fill="#6a818e"></path>
    </g>
  </g>
</svg>
