<svg width="36" height="24" viewBox="0 0 36 24" fill="none" xmlns="http://www.w3.org/2000/svg">
<g opacity="1">
<path d="M35 11.9985C35 11.9985 27.3881 21.1667 18 21.1667C8.61187 21.1667 1 11.9985 1 11.9985C1 11.9985 8.61187 2.83032 18 2.83032C27.3881 2.83032 35 11.9985 35 11.9985Z" stroke="#015193" stroke-width="1.5" stroke-linecap="round" stroke-linejoin="round"/>
<path d="M26.3757 15.4618C28.2514 10.7463 26.0217 5.37371 21.3955 3.46181C16.7693 1.54991 11.4985 3.82269 9.62279 8.53821C7.7471 13.2537 9.97684 18.6263 14.603 20.5382C19.2292 22.4501 24.5 20.1773 26.3757 15.4618Z" stroke="#015193" stroke-width="1.5" stroke-linecap="round" stroke-linejoin="round"/>
<path d="M20.5882 10.9102C19.5845 10.9102 18.7726 10.0827 18.7726 9.05954C18.7726 8.57806 18.9547 8.1367 19.2548 7.8107C18.8612 7.69033 18.438 7.62012 18.005 7.62012C15.6285 7.62012 13.7046 9.58114 13.7046 12.0036C13.7046 14.426 15.6285 16.387 18.005 16.387C20.3816 16.387 22.3055 14.426 22.3055 12.0036C22.3055 11.3917 22.1824 10.8099 21.961 10.2783C21.6264 10.6645 21.1393 10.9102 20.5981 10.9102H20.5882Z" fill="#015193"/>
</g>
</svg>
