<?xml version="1.0" encoding="UTF-8"?>
<svg xmlns="http://www.w3.org/2000/svg" width="18.669" height="23.113" viewBox="0 0 18.669 23.113">
  <g id="shopping-bag_1_" data-name="shopping-bag (1)" transform="translate(-48.05 0.5)">
    <path id="Path_1006" data-name="Path 1006" d="M66.219,19.165,64.946,4.825a.545.545,0,0,0-.549-.5H61.715a4.33,4.33,0,0,0-8.66,0H50.372a.552.552,0,0,0-.549.5L48.55,19.165v.05a3.107,3.107,0,0,0,3.273,2.9H62.946a3.107,3.107,0,0,0,3.273-2.9ZM57.384,1.1a3.236,3.236,0,0,1,3.232,3.227H54.153A3.236,3.236,0,0,1,57.384,1.1ZM62.946,21.01H51.823a2.019,2.019,0,0,1-2.174-1.776l1.227-13.81h2.179V7.351a.549.549,0,0,0,1.1,0V5.424h6.463V7.351a.549.549,0,1,0,1.1,0V5.424h2.179L65.12,19.239A2.019,2.019,0,0,1,62.946,21.01Z" transform="translate(0)" fill="#005192" stroke="#005192" stroke-width="1"></path>
  </g>
</svg>
