<svg width="37" height="25" viewBox="0 0 37 25" fill="none" xmlns="http://www.w3.org/2000/svg">
<path d="M20.2614 13.7649L0.651561 13.7432C0.291031 13.7432 0 13.4521 0 13.0916V10.3029C0 9.9424 0.291031 9.65137 0.651561 9.65137H20.2614C20.6219 9.65137 20.913 9.9424 20.913 10.3029V13.1133C20.913 13.2871 20.8435 13.4521 20.7218 13.5738C20.6002 13.6954 20.433 13.7649 20.2614 13.7649ZM1.30312 12.4422L19.6098 12.4618V10.9545H1.30312V12.4401V12.4422Z" fill="#2A5190"/>
<path d="M35.402 21.6943C35.0415 21.6943 34.7504 21.4033 34.7504 21.0427V10.6091L23.8194 1.50022L12.6538 10.8045C12.378 11.0347 11.9675 10.9978 11.7351 10.722C11.5049 10.4462 11.5418 10.0357 11.8177 9.80329L23.4002 0.151488C23.6413 -0.050496 23.9932 -0.050496 24.2342 0.151488L35.8168 9.80329C35.9645 9.92708 36.0514 10.1095 36.0514 10.3028V21.0406C36.0514 21.4011 35.7604 21.6921 35.3998 21.6921L35.402 21.6943Z" fill="#2A5190"/>
<path d="M2.58223 21.6943C2.22169 21.6943 1.93066 21.4033 1.93066 21.0428V13.2001C1.93066 12.8396 2.22169 12.5486 2.58223 12.5486C2.94276 12.5486 3.23379 12.8396 3.23379 13.2001V21.0428C3.23379 21.4033 2.94276 21.6943 2.58223 21.6943Z" fill="#2A5190"/>
<path d="M34.1217 8.6152H32.8186V3.2333H30.2602V5.47684H28.957V2.58174C28.957 2.22121 29.2481 1.93018 29.6086 1.93018H33.4702C33.8307 1.93018 34.1217 2.22121 34.1217 2.58174V8.6152Z" fill="#2A5190"/>
<path d="M36.348 24.8087H1.48945C1.12892 24.8087 0.837891 24.5177 0.837891 24.1572C0.837891 23.7966 1.12892 23.5056 1.48945 23.5056H36.348C36.7085 23.5056 36.9996 23.7966 36.9996 24.1572C36.9996 24.5177 36.7085 24.8087 36.348 24.8087Z" fill="#2A5190"/>
</svg>
