<svg width="18" height="20" viewBox="0 0 18 20" fill="none" xmlns="http://www.w3.org/2000/svg">
<path d="M13.3021 20H4.69893C4.65709 19.9871 4.61565 19.9676 4.57264 19.9617C3.18649 19.7695 2.09985 18.5898 1.99975 17.2016C1.89183 15.7035 1.76202 14.2074 1.63846 12.7105C1.48557 10.8574 1.32916 9.00469 1.17393 7.15156C1.14265 6.77695 1.10902 6.40234 1.07578 6.02148C0.994454 6.00781 0.924853 5.99453 0.85447 5.98477C0.248005 5.89961 -0.134799 5.3 0.0442864 4.71406C0.182315 4.26172 0.554561 4.00547 1.09064 4.00469C2.31491 4.00234 3.53918 4.0043 4.76345 4.00352C4.83853 4.00352 4.91399 3.9957 5.0051 3.99063C5.0051 3.90039 5.0051 3.83008 5.0051 3.75977C5.0051 3.16758 5.00432 2.57578 5.0051 1.98359C5.00666 1.13203 5.55526 0.374609 6.36544 0.106641C6.48626 0.0664062 6.60982 0.0351562 6.73221 0C8.24427 0 9.75632 0 11.2684 0C11.2895 0.0117188 11.3098 0.0296875 11.3321 0.0339844C12.3417 0.225391 12.9951 1.01367 12.9955 2.0418C12.9955 2.6207 12.9955 3.2 12.9955 3.77891V3.98711C13.0628 3.99492 13.1011 4.00273 13.1394 4.00313C14.0188 4.00391 14.8978 4.00195 15.7772 4.00391C16.2261 4.00508 16.6761 3.99492 17.1234 4.02305C17.613 4.05352 17.9903 4.48672 17.9997 4.98242C18.0091 5.48008 17.649 5.91172 17.1649 5.98281C17.0883 5.99414 17.012 6.00625 16.9244 6.01953C16.91 6.18945 16.8959 6.35 16.8826 6.51094C16.7708 7.8457 16.6593 9.18008 16.5479 10.5148C16.4493 11.6937 16.3508 12.873 16.2527 14.052C16.1682 15.0691 16.0611 16.0852 16.0063 17.1039C15.9414 18.3113 15.1711 19.4023 14.0301 19.8043C13.7939 19.8875 13.5449 19.9355 13.3021 20ZM3.10281 6.02031C3.10281 6.10781 3.09733 6.18477 3.10359 6.26094C3.21503 7.5832 3.33038 8.90469 3.43986 10.227C3.62872 12.502 3.80937 14.7777 4.00879 17.052C4.02639 17.2527 4.1257 17.4664 4.24418 17.634C4.45689 17.9348 4.79082 18.0031 5.14547 18.0027C7.01531 18 8.88514 18.0016 10.755 18.0016C11.4717 18.0016 12.1884 18.0047 12.9052 18.0004C13.5261 17.9965 13.9507 17.6316 13.9992 17.0613C14.106 15.7977 14.208 14.5336 14.3132 13.2695C14.4946 11.0918 14.6773 8.91406 14.8583 6.73633C14.8778 6.49961 14.8927 6.2625 14.9099 6.02031H3.10281ZM7.0157 2.0082V3.98672H10.9841V2.0082H7.0157Z" fill="#2A5190"/>
<path d="M12.0051 12.0117C12.0051 12.975 12.0071 13.9386 12.0043 14.9019C12.0024 15.5195 11.627 15.9472 11.0604 15.9875C10.531 16.025 10.0618 15.6281 10.0121 15.1C10.0043 15.016 9.99766 14.9312 9.99766 14.8468C9.99688 12.946 9.99844 11.0449 9.99609 9.14409C9.9957 8.70269 10.129 8.33823 10.5404 8.11948C11.1277 7.80777 11.8569 8.15777 11.977 8.81089C11.9969 8.91909 12.0036 9.03081 12.0036 9.14097C12.0055 10.098 12.0051 11.055 12.0051 12.0117Z" fill="#2A5190"/>
<path d="M5.99541 11.9957C5.99541 11.0191 5.99189 10.0426 5.99658 9.0664C5.99971 8.4164 6.47166 7.96367 7.08478 8.00898C7.55165 8.04336 7.94032 8.42187 7.98607 8.88789C7.99428 8.97187 8.00249 9.05664 8.00249 9.14062C8.00327 11.0414 8.00249 12.9422 8.00366 14.8434C8.00366 15.173 7.94423 15.4805 7.68929 15.7141C7.37686 16.0008 7.01009 16.0738 6.62181 15.9152C6.18857 15.7383 5.99736 15.3832 5.99619 14.925C5.99345 13.9484 5.99541 12.9719 5.99541 11.9957Z" fill="#2A5190"/>
</svg>
