<svg width="23" height="23" viewBox="0 0 23 23" fill="none" xmlns="http://www.w3.org/2000/svg">
<path d="M13.4296 15.25V16.65H9.38965V15.25H10.6396V10.07H9.38965V8.66002H12.2096V15.25H13.4296ZM12.2996 5.97002C12.2996 6.23002 12.2096 6.45002 12.0196 6.64002C11.8296 6.83002 11.6096 6.92002 11.3496 6.92002C11.0896 6.92002 10.8696 6.83002 10.6896 6.64002C10.5096 6.45002 10.4196 6.23002 10.4196 5.97002C10.4196 5.71002 10.5096 5.49002 10.6896 5.30002C10.8696 5.11002 11.0896 5.02002 11.3496 5.02002C11.6096 5.02002 11.8396 5.11002 12.0296 5.29002C12.2196 5.47002 12.2996 5.70002 12.2996 5.97002Z" fill="white"/>
<path d="M11.33 21.66C17.0351 21.66 21.66 17.0351 21.66 11.33C21.66 5.6249 17.0351 1 11.33 1C5.6249 1 1 5.6249 1 11.33C1 17.0351 5.6249 21.66 11.33 21.66Z" stroke="white" stroke-width="1.5" stroke-linecap="round" stroke-linejoin="round"/>
</svg>
