<svg width="28" height="27" viewBox="0 0 28 27" fill="none" xmlns="http://www.w3.org/2000/svg">
<path d="M14.2299 5.98C19.3607 5.98 23.5199 4.97712 23.5199 3.74C23.5199 2.50288 19.3607 1.5 14.2299 1.5C9.09922 1.5 4.93994 2.50288 4.93994 3.74C4.93994 4.97712 9.09922 5.98 14.2299 5.98Z" stroke="#005192" stroke-width="1.5" stroke-linecap="round" stroke-linejoin="round"/>
<path d="M23.5199 23.3799C23.5199 24.6199 19.3599 25.6199 14.2299 25.6199C9.09994 25.6199 4.93994 24.6199 4.93994 23.3799" stroke="#005192" stroke-width="1.5" stroke-linecap="round" stroke-linejoin="round"/>
<path d="M4.9502 3.91992V23.2099" stroke="#005192" stroke-width="1.5" stroke-linecap="round" stroke-linejoin="round"/>
<path d="M23.54 3.91992V23.2099" stroke="#005192" stroke-width="1.5" stroke-linecap="round" stroke-linejoin="round"/>
<path d="M4.94023 9.05006L3.49023 9.06006V6.82006L4.94023 6.81006V9.05006Z" stroke="#005192" stroke-width="1.5" stroke-linecap="round" stroke-linejoin="round"/>
<path d="M24.99 9.05006L23.54 9.06006V6.82006L24.99 6.81006V9.05006Z" stroke="#005192" stroke-width="1.5" stroke-linecap="round" stroke-linejoin="round"/>
<path d="M3.44 7.93018H1.5L3.03 15.2402H4.62" stroke="#005192" stroke-width="1.5" stroke-linecap="round" stroke-linejoin="round"/>
<path d="M25.0098 7.93018H26.9498L25.4198 15.2402H23.8398" stroke="#005192" stroke-width="1.5" stroke-linecap="round" stroke-linejoin="round"/>
</svg>
