<?xml version="1.0" encoding="UTF-8"?>
<svg xmlns="http://www.w3.org/2000/svg" width="18.646" height="27.968" viewBox="0 0 18.646 27.968">
  <g id="paint-bucket" transform="translate(-85.333)">
    <g id="Group_2370" data-name="Group 2370" transform="translate(85.333)">
      <path id="Path_985" data-name="Path 985" d="M94.656,0a9.334,9.334,0,0,0-9.323,9.323v1.748a.583.583,0,0,0,.583.583H86.5V26.22a1.75,1.75,0,0,0,1.748,1.748h12.819a1.75,1.75,0,0,0,1.748-1.748V11.653h.583a.583.583,0,0,0,.583-.583V9.323A9.334,9.334,0,0,0,94.656,0Zm6.992,26.22a.584.584,0,0,1-.583.583H88.246a.584.584,0,0,1-.583-.583V12.841c1.472.106,1.748.648,1.748,1.726a6.539,6.539,0,0,1-.312,1.947,5.47,5.47,0,0,0-.27,1.549c0,2.629,1.629,2.913,2.331,2.913,1.711,0,2.331-1.742,2.331-2.913a9.373,9.373,0,0,0-.352-2.23,6.223,6.223,0,0,1-.231-1.266c0-2.8,2.719-4.079,5.244-4.079h3.5ZM92.007,16.109a8.416,8.416,0,0,1,.318,1.954c0,.453-.214,1.748-1.165,1.748-.348,0-1.165,0-1.165-1.748a4.43,4.43,0,0,1,.226-1.233,7.553,7.553,0,0,0,.357-2.263c0-2.278-1.393-2.8-2.913-2.9V10.488h6.292a4.691,4.691,0,0,0-2.213,4.079A6.931,6.931,0,0,0,92.007,16.109Zm10.806-6.2a.583.583,0,0,0-.583-.583H87.081a.583.583,0,0,0-.583.583V9.323a8.157,8.157,0,1,1,16.315,0Z" transform="translate(-85.333)" fill="#6a818e"></path>
    </g>
  </g>
</svg>
