<?xml version="1.0" encoding="UTF-8"?>
<svg xmlns="http://www.w3.org/2000/svg" width="12.85" height="15.651" viewBox="0 0 12.85 15.651">
  <g id="Group_2399" data-name="Group 2399" transform="translate(-1541.879 -343.128)">
    <rect id="Rectangle_110" data-name="Rectangle 110" width="11.651" height="14.451" transform="translate(1542.479 343.728)" stroke-width="1.2" stroke="#005192" stroke-linecap="round" stroke-linejoin="round" stroke-miterlimit="10" fill="none"></rect>
    <line id="Line_62" data-name="Line 62" x2="5.549" transform="translate(1545.614 346.521)" fill="none" stroke="#005192" stroke-linecap="round" stroke-linejoin="round" stroke-miterlimit="10" stroke-width="1.2"></line>
    <path id="Path_148" data-name="Path 148" d="M636.2,672.019a.751.751,0,1,0-.75.719.736.736,0,0,0,.75-.719" transform="translate(910.034 -322.623)" fill="#005192"></path>
    <path id="Path_149" data-name="Path 149" d="M696.6,672.019a.751.751,0,1,0-.75.719.736.736,0,0,0,.75-.719" transform="translate(852.538 -322.623)" fill="#005192"></path>
    <path id="Path_150" data-name="Path 150" d="M754.3,672.019a.751.751,0,1,0-.75.719.736.736,0,0,0,.75-.719" transform="translate(797.612 -322.623)" fill="#005192"></path>
    <path id="Path_151" data-name="Path 151" d="M636.2,730.919a.751.751,0,1,0-.75.719.736.736,0,0,0,.75-.719" transform="translate(910.034 -378.808)" fill="#005192"></path>
    <path id="Path_152" data-name="Path 152" d="M696.6,730.919a.751.751,0,1,0-.75.719.736.736,0,0,0,.75-.719" transform="translate(852.538 -378.808)" fill="#005192"></path>
    <path id="Path_153" data-name="Path 153" d="M754.3,730.919a.751.751,0,1,0-.75.719.736.736,0,0,0,.75-.719" transform="translate(797.612 -378.808)" fill="#005192"></path>
    <path id="Path_154" data-name="Path 154" d="M636.2,789.819a.751.751,0,1,0-.75.719.736.736,0,0,0,.75-.719" transform="translate(910.034 -434.994)" fill="#005192"></path>
    <path id="Path_155" data-name="Path 155" d="M696.6,789.819a.751.751,0,1,0-.75.719.736.736,0,0,0,.75-.719" transform="translate(852.538 -434.994)" fill="#005192"></path>
    <path id="Path_156" data-name="Path 156" d="M754.3,789.819a.751.751,0,1,0-.75.719.736.736,0,0,0,.75-.719" transform="translate(797.612 -434.994)" fill="#005192"></path>
  </g>
</svg>
