<svg width="30" height="25" viewBox="0 0 30 25" fill="none" xmlns="http://www.w3.org/2000/svg">
<path d="M1.44711 1H14.6554L15.0652 9.52364C15.0652 11.8458 16.6208 13.9006 18.8842 14.5457L26.0286 16.2965C27.7891 16.8033 29 18.3882 29 20.2035V21.0881L28.171 24H17.841L15.8942 22.9772H11.5163L9.81171 24H1.44711L1 21.125L1.44711 1Z" stroke="#005193" stroke-width="1.5" stroke-linecap="round" stroke-linejoin="round"/>
<path d="M29 22H1" stroke="#005193" stroke-width="1.5" stroke-linecap="round" stroke-linejoin="round"/>
<path d="M14 5H11" stroke="#005193" stroke-width="1.5" stroke-linecap="round" stroke-linejoin="round"/>
<path d="M14 7H11" stroke="#005193" stroke-width="1.5" stroke-linecap="round" stroke-linejoin="round"/>
<path d="M2 23V24" stroke="#005193" stroke-width="1.5" stroke-linecap="round" stroke-linejoin="round"/>
<path d="M4 23V24" stroke="#005193" stroke-width="1.5" stroke-linecap="round" stroke-linejoin="round"/>
<path d="M7 23V24" stroke="#005193" stroke-width="1.5" stroke-linecap="round" stroke-linejoin="round"/>
<path d="M9 23V24" stroke="#005193" stroke-width="1.5" stroke-linecap="round" stroke-linejoin="round"/>
<path d="M20 23V24" stroke="#005193" stroke-width="1.5" stroke-linecap="round" stroke-linejoin="round"/>
<path d="M22 23V24" stroke="#005193" stroke-width="1.5" stroke-linecap="round" stroke-linejoin="round"/>
<path d="M24 23V24" stroke="#005193" stroke-width="1.5" stroke-linecap="round" stroke-linejoin="round"/>
<path d="M26 23V24" stroke="#005193" stroke-width="1.5" stroke-linecap="round" stroke-linejoin="round"/>
<path d="M1 14C4.88563 14.1045 8 17.2008 8 21" stroke="#005193" stroke-width="1.5" stroke-linecap="round" stroke-linejoin="round"/>
<path d="M20 22C20.4211 19.5714 21.8947 17.449 24 16" stroke="#005193" stroke-width="1.5" stroke-linecap="round" stroke-linejoin="round"/>
</svg>
