<svg width="24" height="28" viewBox="0 0 24 28" fill="none" xmlns="http://www.w3.org/2000/svg">
<path d="M14.7237 26.0014L11.9991 27L9.2745 26.0014C4.30733 24.1805 1 19.4191 1 14.0899V3.30513C1 3.30513 9.414 0.984063 12.2958 1.00008C15.0327 1.01432 23 3.30513 23 3.30513V14.0899C23 19.4191 19.6927 24.1805 14.7237 26.0014Z" stroke="white" stroke-width="1.5" stroke-linecap="round" stroke-linejoin="round"/>
<path d="M13.9795 22.309L11.9991 23L10.0188 22.309C6.40509 21.0481 4 17.7523 4 14.0622V6.59573C4 6.59573 10.1189 4.9901 12.215 5.00005C14.2057 5.00999 20 6.59573 20 6.59573V14.0622C20 17.7523 17.5949 21.0481 13.9812 22.309H13.9795Z" stroke="white" stroke-width="1.5" stroke-linecap="round" stroke-linejoin="round"/>
<path d="M4 14L9 10" stroke="white" stroke-width="1.5" stroke-linecap="round" stroke-linejoin="round"/>
<path d="M9 12L17 6" stroke="white" stroke-width="1.5" stroke-linecap="round" stroke-linejoin="round"/>
</svg>
