<?xml version="1.0" encoding="UTF-8"?>
<svg xmlns="http://www.w3.org/2000/svg" id="Dach" viewBox="0 0 192 192">
  <defs>
    <style>.cls-1{fill:none;stroke:#6A818E;stroke-linecap:round;stroke-linejoin:round;stroke-width:6px;}</style>
  </defs>
  <title>181105_KEMPEROL_Anwendungsgebiete</title>
  <path class="cls-1" d="M138.66,48H53.37A5.33,5.33,0,0,0,48,53.37v85.32A5.34,5.34,0,0,0,53.37,144h46v-37.1H86.82V92.35H99.28V81.69c0-12.39,7.56-19.13,18.65-19.13a99.25,99.25,0,0,1,11.17.57V76.05h-7.68c-6,0-7.16,2.86-7.16,7v9.25h14.38l-1.87,14.51H114.26V144h24.4a5.34,5.34,0,0,0,5.3-5.3V53.37A5.33,5.33,0,0,0,138.66,48Z"></path>
</svg>
