<?xml version="1.0" encoding="UTF-8"?>
<svg xmlns="http://www.w3.org/2000/svg" id="Dach" viewBox="0 0 192 192">
  <defs>
    <style>.cls-1{fill:none;stroke:#6A818E;stroke-linecap:round;stroke-linejoin:round;stroke-width:6px;}</style>
  </defs>
  <title>181105_KEMPEROL_Anwendungsgebiete</title>
  <path class="cls-1" d="M150.09,71.17a13.4,13.4,0,0,0-9.43-9.49C132.34,59.44,99,59.44,99,59.44s-33.34,0-41.66,2.24a13.4,13.4,0,0,0-9.43,9.49C45.69,79.54,45.69,97,45.69,97s0,17.46,2.22,25.83a13.4,13.4,0,0,0,9.43,9.49c8.32,2.24,41.66,2.24,41.66,2.24s33.34,0,41.66-2.24a13.4,13.4,0,0,0,9.43-9.49c2.22-8.37,2.22-25.83,2.22-25.83S152.31,79.54,150.09,71.17Zm-62,41.68V81.15L116,97Z"></path>
</svg>
