<svg width="28" height="25" viewBox="0 0 28 25" fill="none" xmlns="http://www.w3.org/2000/svg">
<path d="M27.5333 0H17.2579C17.1786 0 17.0994 0.0266619 17.0377 0.0710985H10.3899C10.3283 0.0355492 10.2667 0 10.1962 0H0.440252C0.193711 0 0 0.195521 0 0.444365C0 0.69321 0.193711 0.888731 0.440252 0.888731H9.34214L10.4252 2.8706L11.0855 5.19908C11.0855 5.19908 11.1119 5.27906 11.1384 5.31461L13.727 9.43832L15.2591 14.0864L15.5233 15.5706V20.3786C15.5233 20.4319 15.5321 20.4852 15.5497 20.5386L17.117 24.7156C17.1786 24.8845 17.3459 25 17.5308 25C17.5308 25 17.5484 25 17.5572 25C17.7509 24.9911 17.9094 24.8578 17.9623 24.6712L19.2742 19.5699C19.2742 19.5699 19.2918 19.4988 19.2918 19.4632V14.984C19.2918 14.984 19.2918 14.9218 19.283 14.8951L17.9535 8.48738L16.1925 4.02595L17.5748 0.906506H27.5597C27.8063 0.906506 28 0.710985 28 0.46214C28 0.213295 27.8063 0.0177746 27.5597 0.0177746L27.5333 0Z" fill="#005193"/>
</svg>
