<svg width="28" height="29" viewBox="0 0 28 29" fill="none" xmlns="http://www.w3.org/2000/svg">
<g opacity="1">
<path d="M13.9499 7.1499C17.9799 7.1499 21.2499 10.4199 21.2499 14.4499C21.2499 18.4799 17.9799 21.7499 13.9499 21.7499C9.9199 21.7499 6.6499 18.4799 6.6499 14.4499C6.6499 10.4199 9.9199 7.1499 13.9499 7.1499Z" stroke="white" stroke-width="1.5" stroke-linecap="round" stroke-linejoin="round"/>
<path d="M14.04 4.02V1.5V4.02Z" stroke="white" stroke-width="1.5" stroke-linecap="round" stroke-linejoin="round"/>
<path d="M8.8098 5.36994L7.5498 3.18994L8.8098 5.36994Z" stroke="white" stroke-width="1.5" stroke-linecap="round" stroke-linejoin="round"/>
<path d="M4.95979 9.1599L2.77979 7.8999L4.95979 9.1599Z" stroke="white" stroke-width="1.5" stroke-linecap="round" stroke-linejoin="round"/>
<path d="M3.52 14.3701H1H3.52Z" stroke="white" stroke-width="1.5" stroke-linecap="round" stroke-linejoin="round"/>
<path d="M4.86994 19.6001L2.68994 20.8601L4.86994 19.6001Z" stroke="white" stroke-width="1.5" stroke-linecap="round" stroke-linejoin="round"/>
<path d="M8.6599 23.45L7.3999 25.6299L8.6599 23.45Z" stroke="white" stroke-width="1.5" stroke-linecap="round" stroke-linejoin="round"/>
<path d="M13.8701 24.8901V27.4101V24.8901Z" stroke="white" stroke-width="1.5" stroke-linecap="round" stroke-linejoin="round"/>
<path d="M19.1001 23.54L20.3601 25.71L19.1001 23.54Z" stroke="white" stroke-width="1.5" stroke-linecap="round" stroke-linejoin="round"/>
<path d="M22.9502 19.75L25.1302 21L22.9502 19.75Z" stroke="white" stroke-width="1.5" stroke-linecap="round" stroke-linejoin="round"/>
<path d="M24.3901 14.54H26.9101H24.3901Z" stroke="white" stroke-width="1.5" stroke-linecap="round" stroke-linejoin="round"/>
<path d="M23.04 9.31005L25.21 8.05005L23.04 9.31005Z" stroke="white" stroke-width="1.5" stroke-linecap="round" stroke-linejoin="round"/>
<path d="M19.25 5.46003L20.5 3.28003L19.25 5.46003Z" stroke="white" stroke-width="1.5" stroke-linecap="round" stroke-linejoin="round"/>
</g>
</svg>
