<?xml version="1.0" encoding="UTF-8"?>
<svg xmlns="http://www.w3.org/2000/svg" viewBox="0 0 41.2 30.2">
  <defs>
    <style>.cls-1{fill:#fff}</style>
  </defs>
  <g id="Group_2020" data-name="Group 2020">
    <g id="Group_2015" data-name="Group 2015">
      <g id="youtube_1_">
        <g id="Group_1889" data-name="Group 1889">
          <path id="Path_633" data-name="Path 633" class="cls-1" d="M33 0H8.3A8.26 8.26 0 0 0 0 8.2V22a8.237 8.237 0 0 0 8.2 8.2H33a8.237 8.237 0 0 0 8.2-8.2V8.2A8.237 8.237 0 0 0 33 0zm6.4 22a6.445 6.445 0 0 1-6.4 6.4H8.3A6.445 6.445 0 0 1 1.9 22V8.2a6.445 6.445 0 0 1 6.4-6.4H33a6.445 6.445 0 0 1 6.4 6.4zm-24.7.9l13.4-7.7-13.4-7.7zm1.8-12.4l7.9 4.6-7.9 4.6z"></path>
        </g>
      </g>
    </g>
  </g>
</svg>
